<?xml version="1.0" encoding="UTF-8" standalone="no"?>
<svg
   width="50"
   height="50"
   viewBox="0 0 50 50"
   version="1.1"
   id="svg105"
   sodipodi:docname="rocket_design.svg"
   inkscape:version="1.3.2 (091e20ef0f, 2023-11-25, custom)"
   xmlns:inkscape="http://www.inkscape.org/namespaces/inkscape"
   xmlns:sodipodi="http://sodipodi.sourceforge.net/DTD/sodipodi-0.dtd"
   xmlns="http://www.w3.org/2000/svg"
   xmlns:svg="http://www.w3.org/2000/svg">
  <sodipodi:namedview
     id="namedview105"
     pagecolor="#ffffff"
     bordercolor="#000000"
     borderopacity="0.25"
     inkscape:showpageshadow="2"
     inkscape:pageopacity="0.0"
     inkscape:pagecheckerboard="0"
     inkscape:deskcolor="#d1d1d1"
     showguides="true"
     inkscape:zoom="8.1533333"
     inkscape:cx="15.269828"
     inkscape:cy="-4.8446443"
     inkscape:window-width="2560"
     inkscape:window-height="1412"
     inkscape:window-x="1440"
     inkscape:window-y="109"
     inkscape:window-maximized="1"
     inkscape:current-layer="svg105">
    <sodipodi:guide
       position="2092.6406,2721.1719"
       orientation="0,-1"
       id="guide105"
       inkscape:locked="false" />
  </sodipodi:namedview>
  <defs
     id="defs50">
    <clipPath
       id="clip-0">
      <path
         clip-rule="nonzero"
         d="m 2707,2079 h 273 v 1060 h -273 z m 0,0"
         id="path1" />
    </clipPath>
    <clipPath
       id="clip-1">
      <path
         clip-rule="evenodd"
         d="m 2906.4805,3138.5195 -199.1211,-544.3007 77.7304,-515.3907 c 0,0 241.9219,98.1211 253.6016,200.1407 20.2383,176.6093 -43.9922,701.0312 -132.2109,859.5507 z m 0,0"
         id="path2" />
    </clipPath>
    <clipPath
       id="clip-2">
      <path
         clip-rule="nonzero"
         d="m 2707,2078 h 122 v 533 h -122 z m 0,0"
         id="path3" />
    </clipPath>
    <clipPath
       id="clip-3">
      <path
         clip-rule="evenodd"
         d="m 2906.4805,3138.5195 -199.1211,-544.3007 77.7304,-515.3907 c 0,0 241.9219,98.1211 253.6016,200.1407 20.2383,176.6093 -43.9922,701.0312 -132.2109,859.5507 z m 0,0"
         id="path4" />
    </clipPath>
    <clipPath
       id="clip-4">
      <path
         clip-rule="nonzero"
         d="m 1820,2079 h 273 v 1060 h -273 z m 0,0"
         id="path5" />
    </clipPath>
    <clipPath
       id="clip-5">
      <path
         clip-rule="evenodd"
         d="m 1893.5195,3138.5195 199.1211,-544.3007 -77.7304,-515.3907 c 0,0 -241.9219,98.1211 -253.6016,200.1407 -20.2383,176.6093 43.9922,701.0312 132.2109,859.5507 z m 0,0"
         id="path6" />
    </clipPath>
    <clipPath
       id="clip-6">
      <path
         clip-rule="nonzero"
         d="m 2008,606 h 723 v 1980 h -723 z m 0,0"
         id="path7" />
    </clipPath>
    <clipPath
       id="clip-7">
      <path
         clip-rule="evenodd"
         d="m 2378.1914,574.91016 c 422.7578,646.28124 550.2188,1319.12894 327.4375,2019.30864 L 2036.9492,2592.25 C 1819.7695,1964.3516 1911.2695,1290.1406 2378.1914,574.91016 Z m 0,0"
         id="path8" />
    </clipPath>
    <clipPath
       id="clip-8">
      <path
         clip-rule="nonzero"
         d="m 2369,606 h 362 v 1980 h -362 z m 0,0"
         id="path9" />
    </clipPath>
    <clipPath
       id="clip-9">
      <path
         clip-rule="evenodd"
         d="m 2376.5391,606.60156 c 343.3125,633.36724 446.8125,1292.78904 265.9023,1978.98824 l -543.0117,-1.9296 C 1923.0703,1968.2891 1997.3789,1307.5508 2376.5391,606.60156 Z m 0,0"
         id="path10" />
    </clipPath>
    <clipPath
       id="clip-10">
      <path
         clip-rule="evenodd"
         d="m 2378.1914,574.91016 c 422.7578,646.28124 550.2188,1319.12894 327.4375,2019.30864 L 2036.9492,2592.25 C 1819.7695,1964.3516 1911.2695,1290.1406 2378.1914,574.91016 Z m 0,0"
         id="path11" />
    </clipPath>
    <clipPath
       id="clip-11">
      <path
         clip-rule="nonzero"
         d="m 2088,574 h 538 v 372 h -538 z m 0,0"
         id="path12" />
    </clipPath>
    <clipPath
       id="clip-12">
      <path
         clip-rule="evenodd"
         d="m 2378.1914,574.91016 c 422.7578,646.28124 550.2188,1319.12894 327.4375,2019.30864 L 2036.9492,2592.25 C 1819.7695,1964.3516 1911.2695,1290.1406 2378.1914,574.91016 Z m 0,0"
         id="path13" />
    </clipPath>
    <clipPath
       id="clip-13">
      <path
         clip-rule="nonzero"
         d="m 2217,602 h 318 v 344 h -318 z m 0,0"
         id="path14" />
    </clipPath>
    <clipPath
       id="clip-14">
      <path
         clip-rule="evenodd"
         d="m 2378.1914,574.91016 c 422.7578,646.28124 550.2188,1319.12894 327.4375,2019.30864 L 2036.9492,2592.25 C 1819.7695,1964.3516 1911.2695,1290.1406 2378.1914,574.91016 Z m 0,0"
         id="path15" />
    </clipPath>
    <clipPath
       id="clip-15">
      <path
         clip-rule="nonzero"
         d="m 2376,602 h 159 v 344 h -159 z m 0,0"
         id="path16" />
    </clipPath>
    <clipPath
       id="clip-16">
      <path
         clip-rule="evenodd"
         d="M 2534.8203,945.42187 C 2488.9688,829.17187 2435.3203,715 2375.9883,602.35937 2320.25,715.71875 2266.3906,829.75 2217.1914,945.42187 Z m 0,0"
         id="path17" />
    </clipPath>
    <clipPath
       id="clip-17">
      <path
         clip-rule="evenodd"
         d="m 2378.1914,574.91016 c 422.7578,646.28124 550.2188,1319.12894 327.4375,2019.30864 L 2036.9492,2592.25 C 1819.7695,1964.3516 1911.2695,1290.1406 2378.1914,574.91016 Z m 0,0"
         id="path18" />
    </clipPath>
    <clipPath
       id="clip-18">
      <path
         clip-rule="nonzero"
         d="m 2369,2735 h 225 v 1040 h -225 z m 0,0"
         id="path19" />
    </clipPath>
    <clipPath
       id="clip-19">
      <path
         clip-rule="evenodd"
         d="m 2366.6016,3774.4102 c -205.543,-260.9805 -274.1407,-601.8399 -178.2227,-1038.6797 h 356.4492 c 101.6524,403.5703 43.0938,750.0976 -178.2265,1038.6797 z m 0,0"
         id="path20" />
    </clipPath>
    <clipPath
       id="clip-20">
      <path
         clip-rule="nonzero"
         d="m 2207,2735 h 325 v 779 h -325 z m 0,0"
         id="path21" />
    </clipPath>
    <clipPath
       id="clip-21">
      <path
         clip-rule="evenodd"
         d="m 2366.6016,3774.4102 c -205.543,-260.9805 -274.1407,-601.8399 -178.2227,-1038.6797 h 356.4492 c 101.6524,403.5703 43.0938,750.0976 -178.2265,1038.6797 z m 0,0"
         id="path22" />
    </clipPath>
    <clipPath
       id="clip-22">
      <path
         clip-rule="nonzero"
         d="m 2369,2735 h 163 v 779 h -163 z m 0,0"
         id="path23" />
    </clipPath>
    <clipPath
       id="clip-23">
      <path
         clip-rule="evenodd"
         d="m 2367.3906,3513.9492 c -148.4922,-195.539 -198.0508,-450.9179 -128.75,-778.2187 h 257.5 c 51.1094,210.4414 46.1485,400.1797 -15.4804,568.9883 -26.9219,73.7421 -64.6602,143.4921 -113.2696,209.2304 z m 0,0"
         id="path24" />
    </clipPath>
    <clipPath
       id="clip-24">
      <path
         clip-rule="evenodd"
         d="m 2366.6016,3774.4102 c -205.543,-260.9805 -274.1407,-601.8399 -178.2227,-1038.6797 h 356.4492 c 101.6524,403.5703 43.0938,750.0976 -178.2265,1038.6797 z m 0,0"
         id="path25" />
    </clipPath>
    <clipPath
       id="clip-25">
      <path
         clip-rule="nonzero"
         d="m 2262,2760 h 217 v 519 h -217 z m 0,0"
         id="path26" />
    </clipPath>
    <clipPath
       id="clip-26">
      <path
         clip-rule="evenodd"
         d="m 2366.6016,3774.4102 c -205.543,-260.9805 -274.1407,-601.8399 -178.2227,-1038.6797 h 356.4492 c 101.6524,403.5703 43.0938,750.0976 -178.2265,1038.6797 z m 0,0"
         id="path27" />
    </clipPath>
    <clipPath
       id="clip-27">
      <path
         clip-rule="nonzero"
         d="m 2369,2760 h 110 v 519 h -110 z m 0,0"
         id="path28" />
    </clipPath>
    <clipPath
       id="clip-28">
      <path
         clip-rule="evenodd"
         d="m 2369.1484,3278.7617 c -98.9375,-130.3008 -131.9687,-300.4804 -85.789,-518.582 h 171.5898 c 48.9297,201.4922 20.7422,374.5 -85.8008,518.582 z m 0,0"
         id="path29" />
    </clipPath>
    <clipPath
       id="clip-29">
      <path
         clip-rule="evenodd"
         d="m 2366.6016,3774.4102 c -205.543,-260.9805 -274.1407,-601.8399 -178.2227,-1038.6797 h 356.4492 c 101.6524,403.5703 43.0938,750.0976 -178.2265,1038.6797 z m 0,0"
         id="path30" />
    </clipPath>
    <clipPath
       id="clip-30">
      <path
         clip-rule="nonzero"
         d="m 2231,2632 h 375 v 107 h -375 z m 0,0"
         id="path31" />
    </clipPath>
    <clipPath
       id="clip-31">
      <path
         clip-rule="evenodd"
         d="m 2605.5586,2632.7813 h -470.1797 c 0,0 4.9922,62.7773 11.4492,79.9296 6.4532,17.1602 17.8633,22.5 27.2813,23.0196 69.2187,3.8281 318.0195,3.3789 388.039,0 10.9102,-0.5313 24.1329,-8.3203 32.0704,-20.3086 9.8828,-14.9336 11.3398,-82.6406 11.3398,-82.6406 z m 0,0"
         id="path32" />
    </clipPath>
    <clipPath
       id="clip-32">
      <path
         clip-rule="nonzero"
         d="m 2232,2585 h 476 v 48 h -476 z m 0,0"
         id="path33" />
    </clipPath>
    <clipPath
       id="clip-33">
      <path
         clip-rule="evenodd"
         d="m 2707.3594,2585.5898 h -672.961 c 0,0 1.793,25.961 6.3516,33.8321 4.0703,7.0195 7.9609,13.289 20.9883,13.3594 98.6211,0.4882 519.8125,2.539 618.0898,0 9.5313,-0.25 17.5625,-9.4024 22.1524,-17.2618 4.5898,-7.8711 5.3789,-29.9297 5.3789,-29.9297 z m 0,0"
         id="path34" />
    </clipPath>
    <clipPath
       id="clip-34">
      <path
         clip-rule="nonzero"
         d="m 2218,1100 h 303 v 279 h -303 z m 0,0"
         id="path35" />
    </clipPath>
    <clipPath
       id="clip-35">
      <path
         clip-rule="evenodd"
         d="m 2369.4219,1070.1797 c 101.5195,0 183.9297,75.9805 183.9297,169.5703 0,93.5898 -82.4102,169.5703 -183.9297,169.5703 -101.5117,0 -183.9336,-75.9805 -183.9336,-169.5703 0,-93.5898 82.4219,-169.5703 183.9336,-169.5703 z m 0,0"
         id="path36" />
    </clipPath>
    <clipPath
       id="clip-36">
      <path
         clip-rule="nonzero"
         d="m 2229,1110 h 281 v 259 h -281 z m 0,0"
         id="path37" />
    </clipPath>
    <clipPath
       id="clip-37">
      <path
         clip-rule="evenodd"
         d="m 2369.4219,1070.1797 c 101.5195,0 183.9297,75.9805 183.9297,169.5703 0,93.5898 -82.4102,169.5703 -183.9297,169.5703 -101.5117,0 -183.9336,-75.9805 -183.9336,-169.5703 0,-93.5898 82.4219,-169.5703 183.9336,-169.5703 z m 0,0"
         id="path38" />
    </clipPath>
    <clipPath
       id="clip-38">
      <path
         clip-rule="nonzero"
         d="m 2367,1110 h 143 v 259 h -143 z m 0,0"
         id="path39" />
    </clipPath>
    <clipPath
       id="clip-39">
      <path
         clip-rule="evenodd"
         d="m 2369.4219,1110.9609 c 77.0976,0 139.6992,57.711 139.6992,128.7891 0,71.0703 -62.6016,128.7813 -139.6992,128.7813 -77.1016,0 -139.6914,-57.711 -139.6914,-128.7813 0,-71.0781 62.5898,-128.7891 139.6914,-128.7891 z m 0,0"
         id="path40" />
    </clipPath>
    <clipPath
       id="clip-40">
      <path
         clip-rule="evenodd"
         d="m 2369.4219,1070.1797 c 101.5195,0 183.9297,75.9805 183.9297,169.5703 0,93.5898 -82.4102,169.5703 -183.9297,169.5703 -101.5117,0 -183.9336,-75.9805 -183.9336,-169.5703 0,-93.5898 82.4219,-169.5703 183.9336,-169.5703 z m 0,0"
         id="path41" />
    </clipPath>
    <clipPath
       id="clip-41">
      <path
         clip-rule="nonzero"
         d="m 2270,1503 h 199 v 184 h -199 z m 0,0"
         id="path42" />
    </clipPath>
    <clipPath
       id="clip-42">
      <path
         clip-rule="evenodd"
         d="m 2369.4219,1483.2813 c 66.7265,0 120.8984,49.9375 120.8984,111.457 0,61.5117 -54.1719,111.4609 -120.8984,111.4609 -66.7227,0 -120.8906,-49.9492 -120.8906,-111.4609 0,-61.5195 54.1679,-111.457 120.8906,-111.457 z m 0,0"
         id="path43" />
    </clipPath>
    <clipPath
       id="clip-43">
      <path
         clip-rule="nonzero"
         d="m 2277,1510 h 185 v 170 h -185 z m 0,0"
         id="path44" />
    </clipPath>
    <clipPath
       id="clip-44">
      <path
         clip-rule="evenodd"
         d="m 2369.4219,1483.2813 c 66.7265,0 120.8984,49.9375 120.8984,111.457 0,61.5117 -54.1719,111.4609 -120.8984,111.4609 -66.7227,0 -120.8906,-49.9492 -120.8906,-111.4609 0,-61.5195 54.1679,-111.457 120.8906,-111.457 z m 0,0"
         id="path45" />
    </clipPath>
    <clipPath
       id="clip-45">
      <path
         clip-rule="nonzero"
         d="m 2371,1510 h 91 v 170 h -91 z m 0,0"
         id="path46" />
    </clipPath>
    <clipPath
       id="clip-46">
      <path
         clip-rule="evenodd"
         d="m 2369.4219,1510.0898 c 50.6797,0 91.8164,37.9297 91.8164,84.6485 0,46.7226 -41.1367,84.6523 -91.8164,84.6523 -50.6719,0 -91.8203,-37.9297 -91.8203,-84.6523 0,-46.7188 41.1484,-84.6485 91.8203,-84.6485 z m 0,0"
         id="path47" />
    </clipPath>
    <clipPath
       id="clip-47">
      <path
         clip-rule="evenodd"
         d="m 2369.4219,1483.2813 c 66.7265,0 120.8984,49.9375 120.8984,111.457 0,61.5117 -54.1719,111.4609 -120.8984,111.4609 -66.7227,0 -120.8906,-49.9492 -120.8906,-111.4609 0,-61.5195 54.1679,-111.457 120.8906,-111.457 z m 0,0"
         id="path48" />
    </clipPath>
    <clipPath
       id="clip-48">
      <path
         clip-rule="nonzero"
         d="m 2362,2043 h 91 v 980 h -91 z m 0,0"
         id="path49" />
    </clipPath>
    <clipPath
       id="clip-49">
      <path
         clip-rule="evenodd"
         d="m 2369.4219,2043.6484 c 0,0 82.9687,114.5821 83.1679,176.1602 0.5118,163.1016 -80.0703,802.4023 -80.0703,802.4023 0,0 -94.4882,-641.0195 -95.0078,-804.1211 -0.1914,-61.6601 91.9102,-174.4414 91.9102,-174.4414 z m 0,0"
         id="path50" />
    </clipPath>
  </defs>
  <g
     id="g105"
     transform="matrix(0.98206604,0,0,0.98206604,4.5472998,0.44835006)">
    <path
       fill-rule="evenodd"
       fill="#ff4c4c"
       fill-opacity="1"
       d="m 13.279181,40.062655 3.111744,-8.506027 -1.214728,-8.054238 c 0,0 -3.780624,1.533381 -3.963143,3.127685 -0.316275,2.759956 0.687491,10.955327 2.066127,13.43258"
       id="path55"
       style="stroke-width:0.0156275" />
    <path
       fill-rule="evenodd"
       fill="#ff4c4c"
       fill-opacity="1"
       d="m 28.373217,40.070651 -3.111744,-8.506027 1.214728,-8.054238 c 0,0 3.780608,1.533381 3.963142,3.127685 0.31626,2.759957 -0.68749,10.955327 -2.066126,13.432579"
       id="path55-3"
       style="stroke-width:0.0156275" />
    <path
       fill-rule="evenodd"
       fill="#f7f1bd"
       fill-opacity="1"
       d="M 20.853358,1.122138e-6 C 27.459984,10.099724 29.451874,20.614611 25.970368,31.556628 L 15.520612,31.525872 C 12.126655,21.713426 13.556559,11.177236 20.853358,1.2205322e-5"
       id="path57"
       style="stroke-width:0.0156275" />
    <g
       clip-path="url(#clip-11)"
       id="g64"
       transform="matrix(0.01562744,0,0,0.01562744,-16.311695,-8.9843762)">
      <g
         clip-path="url(#clip-12)"
         id="g63">
        <path
           fill-rule="evenodd"
           fill="#e20707"
           fill-opacity="1"
           d="m 2625.1289,574.91016 h -536.8672 v 370.51171 h 536.8672 V 574.91016"
           id="path62" />
      </g>
    </g>
    <path
       fill-rule="evenodd"
       fill="#ff6c34"
       fill-opacity="1"
       d="M 20.672243,50 C 17.460117,45.921542 16.388117,40.594782 17.887069,33.768094 h 5.570395 C 25.046025,40.074866 24.130909,45.4902 20.672243,50"
       id="path69"
       style="stroke-width:0.0156275" />
    <g
       clip-path="url(#clip-20)"
       id="g73"
       transform="matrix(0.01562744,0,0,0.01562744,-16.311695,-8.9843762)">
      <g
         clip-path="url(#clip-21)"
         id="g72">
        <path
           fill-rule="evenodd"
           fill="#ffdb2b"
           fill-opacity="1"
           d="m 2367.3906,3513.9492 c -148.4922,-195.539 -198.0508,-450.9179 -128.75,-778.2187 h 257.5 c 51.1094,210.4414 46.1485,400.1797 -15.4804,568.9883 -26.9219,73.7421 -64.6602,143.4921 -113.2696,209.2304"
           id="path71" />
      </g>
    </g>
    <g
       clip-path="url(#clip-25)"
       id="g78"
       transform="matrix(0.01562744,0,0,0.01562744,-16.311695,-8.9843762)">
      <g
         clip-path="url(#clip-26)"
         id="g77">
        <path
           fill-rule="evenodd"
           fill="#ffff55"
           fill-opacity="1"
           d="m 2369.1484,3278.7617 c -98.9375,-130.3008 -131.9687,-300.4804 -85.789,-518.582 h 171.5898 c 48.9297,201.4922 20.7422,374.5 -85.8008,518.582"
           id="path76" />
      </g>
    </g>
    <path
       fill-rule="evenodd"
       fill="#005988"
       fill-opacity="1"
       d="m 24.406514,32.159259 h -7.347699 c 0,0 0.07802,0.98105 0.178928,1.249097 0.100844,0.268169 0.279149,0.351619 0.42633,0.359738 1.081722,0.05982 4.96983,0.05281 6.064065,0 0.1705,-0.0083 0.377138,-0.130028 0.501174,-0.317373 0.154442,-0.233373 0.177202,-1.291462 0.177202,-1.291462"
       id="path81"
       style="stroke-width:0.0156275" />
    <path
       fill-rule="evenodd"
       fill="#3d7ead"
       fill-opacity="1"
       d="M 25.997406,31.421778 H 15.480757 c 0,0 0.02801,0.405706 0.09925,0.528713 0.0636,0.109695 0.124419,0.20767 0.327991,0.208768 1.541204,0.0076 8.123345,0.03968 9.65917,0 0.148953,-0.0039 0.274456,-0.14693 0.346187,-0.269754 0.07173,-0.123007 0.08405,-0.467727 0.08405,-0.467727"
       id="path83"
       style="stroke-width:0.0156275" />
    <path
       fill-rule="evenodd"
       fill="#343434"
       fill-opacity="1"
       d="m 20.716313,7.739798 c 1.586486,0 2.87435,1.1873802 2.87435,2.64995 0,1.46257 -1.287864,2.64995 -2.87435,2.64995 -1.586374,0 -2.874413,-1.18738 -2.874413,-2.64995 0,-1.4625698 1.288039,-2.64995 2.874413,-2.64995"
       id="path85"
       style="stroke-width:0.0156275" />
    <g
       clip-path="url(#clip-36)"
       id="g89"
       transform="matrix(0.01562744,0,0,0.01562744,-16.311695,-8.9843762)">
      <g
         clip-path="url(#clip-37)"
         id="g88">
        <path
           fill-rule="evenodd"
           fill="#71dcf1"
           fill-opacity="1"
           d="m 2369.4219,1110.9609 c 77.0976,0 139.6992,57.711 139.6992,128.7891 0,71.0703 -62.6016,128.7813 -139.6992,128.7813 -77.1016,0 -139.6914,-57.711 -139.6914,-128.7813 0,-71.0781 62.5898,-128.7891 139.6914,-128.7891"
           id="path87" />
      </g>
    </g>
    <path
       fill-rule="evenodd"
       fill="#343434"
       fill-opacity="1"
       d="m 20.716313,14.19552 c 1.04276,0 1.889322,0.780394 1.889322,1.741783 0,0.961272 -0.846562,1.741849 -1.889322,1.741849 -1.042713,0 -1.889211,-0.780577 -1.889211,-1.741849 0,-0.961389 0.846498,-1.741783 1.889211,-1.741783"
       id="path92"
       style="stroke-width:0.0156275" />
    <g
       clip-path="url(#clip-43)"
       id="g96"
       transform="matrix(0.01562744,0,0,0.01562744,-16.311695,-8.9843762)">
      <g
         clip-path="url(#clip-44)"
         id="g95">
        <path
           fill-rule="evenodd"
           fill="#71dcf1"
           fill-opacity="1"
           d="m 2369.4219,1510.0898 c 50.6797,0 91.8164,37.9297 91.8164,84.6485 0,46.7226 -41.1367,84.6523 -91.8164,84.6523 -50.6719,0 -91.8203,-37.9297 -91.8203,-84.6523 0,-46.7188 41.1484,-84.6485 91.8203,-84.6485"
           id="path94" />
      </g>
    </g>
    <path
       fill-rule="evenodd"
       fill="#ff3030"
       fill-opacity="1"
       d="m 20.716313,22.95262 c 0,0 1.296578,1.790626 1.299691,2.752934 0.008,2.548861 -1.25128,12.539496 -1.25128,12.539496 0,0 -1.476608,-10.017495 -1.484733,-12.566356 -0.003,-0.963588 1.436322,-2.726074 1.436322,-2.726074"
       id="path99"
       style="stroke-width:0.0156275" />
  </g>
</svg>
